/* XPM */
static char *a43h9_mgsna[] = {
/* columns rows colors chars-per-pixel */
"40 40 57 1 ",
"  c black",
". c #060606",
"X c #080808",
"o c #0F0F0F",
"O c #131313",
"+ c #161616",
"@ c #1B1B1B",
"# c #1E1E1E",
"$ c #232323",
"% c #262626",
"& c #292929",
"* c #2F2F2F",
"= c #313131",
"- c #363636",
"; c #383838",
": c #3C3C3C",
"> c #4C4C4C",
", c #555555",
"< c #585858",
"1 c #606060",
"2 c #676767",
"3 c #696969",
"4 c #6E6E6E",
"5 c #707070",
"6 c #747474",
"7 c #797979",
"8 c #7F7F7F",
"9 c #838383",
"0 c #848484",
"q c #888888",
"w c #8C8C8C",
"e c #919191",
"r c #959595",
"t c #9A9A9A",
"y c #9F9F9F",
"u c #A0A0A0",
"i c #A7A7A7",
"p c #ABABAB",
"a c #ACACAC",
"s c #B1B1B1",
"d c #B6B6B6",
"f c #B9B9B9",
"g c #BCBCBC",
"h c #C3C3C3",
"j c #C7C7C7",
"k c #C8C8C8",
"l c #CCCCCC",
"z c #D0D0D0",
"x c #D7D7D7",
"c c #DBDBDB",
"v c #DCDCDC",
"b c #E0E0E0",
"n c #E4E4E4",
"m c #E9E9E9",
"M c #EDEDED",
"N c #F3F3F3",
"B c #F9F9F9",
/* pixels */
"fMBBBBBBBBBBBBBBBBx+pnBBBBBBBBBBBBBBBBmo",
"egjkkkkkjjjkkkkkkvx+0djjkkkkkkkkjjkkkcmo",
"0addddddddddddddfxxO6iddddddddddddddflmo",
"9pdddddddddddddddxxO6idddddddddddddddlmo",
"9pdddddddddddddddxx+6idddddddddddddddlmo",
"9pdddddddddddddddxx+6idddddddddddddddlmo",
"9pdddddddddddddddxxO6idddddddddddddddlmo",
"9tuuuuuuuuuuuuuuuggO6ruuuuuuuuuuuuuuudlo",
"66777777777777777eeo36777777777777777qyX",
"########@@@######$$X#########@@######$%.",
"ffffffffrO8afffffffgffffffffuo6ifffffffg",
"vvvvvvvMz@rkcccvvvvvvvvvccvmb+whcvccvvvv",
"gfffffgvl+8affffffffffffffgxv+6iffffffff",
"dddddddcl+7idddddddddddddddzvO5ysddddddd",
"dddddddcl+7idddddddddddddddzv+5udddddddd",
"dddddddcl+7idddddddddddddddxv+5udddddddd",
"fdddddfvl+7pdddddddddddddddxv+5udddddddd",
"apppaaazh+7upaapppppppppppakzO5tpaappppp",
"wwwwwwwauO6qwwwwwwwwwwwwwwwiaO40wwwwwwww",
"=******;; *********-=******;: &********-",
",455555556555555551.>355555556555555553 ",
"avmmmmmmmmmmmmmmmNc+yxmmmmmmmmmmmmmmmNMo",
"wfhhhhhhhhhhhhhhjvx+9shhhhhhhhhhhhhhhxmo",
"9pdddddddddddddddxxO6usddddddddddddddlmo",
"9pdddddddddddddddxxO6idddddddddddddddlmo",
"9pdddddddddddddddxxO6idddddddddddddddlmo",
"9pdddddddddddddddxxO6idddddddddddddddlmo",
"9issssssssssssssszzO6ussssssssssssssskbo",
"9rtttttttttttttttddO6etttttttttttttttajo",
",,,,,,,,,<,,,,,,,23.>,,,,,,,,<,,,,,,,15 ",
"========& $*=======-========* #*=======-",
"mmnnnnnmh@yxnmnnnnnnnnnnmnnmz+rlnnnnnnnn",
"zzzzzzznl@whzzzzzzzzzzzzzzzbv+0flzzzzzzz",
"dddddddcl+7idddddddddddddddzv+5udddddddd",
"dddddddcl+7idddddddddddddddzvO5udddddddd",
"dddddddcl+7idddddddddddddddzv+5udddddddd",
"dddddddcl+7idddddddddddddddzvO5udddddddd",
"ddddssdck+7isdssssssdddddddzcO5ysdssssdd",
"iiiiiiikf+7tiiiiiiiiiiiiiiihkO5riiiiiiii",
"9999999yrO69999999999999999tuO4999999999"
};
